REM GENRE Classical
REM DATE 1984
REM COMMENT uploaded by ANothing
CATALOG 0028943900621
PERFORMER "Ludwig van Beethoven"
TITLE "BTHVN 2020: CD 005 Symphony no. 9 (Modern Instruments)"
FILE "BTHVN 2020 - CD 005.flac" WAVE
  TRACK 01 AUDIO
    TITLE "Symphonie No. 9 d-Moll, Op. 125: I. Allegro ma non troppo, un poco maestoso"
    INDEX 00 00:00:00
    INDEX 01 00:00:33
  TRACK 02 AUDIO
    TITLE "Symphonie No. 9 d-Moll, Op. 125: II. Molto vivace"
    INDEX 01 15:27:15
  TRACK 03 AUDIO
    TITLE "Symphonie No. 9 d-Moll, Op. 125: III. Adagio molto e cantabile"
    INDEX 01 25:37:33
  TRACK 04 AUDIO
    TITLE "Symphonie No. 9 d-Moll, Op. 125: IV. Presto - Allegro assai"
    INDEX 01 42:32:13
  TRACK 05 AUDIO
    TITLE "Symphonie No. 9 d-Moll, Op. 125: V. Presto - 'O Freunde, nicht diese T—ne!' - Allegro assai - Allegro assai vivace. Alla marcia - Andante maestoso - Allegro energico, sempre ben marcato"
    INDEX 01 48:58:63
